<?xml version="1.0" encoding="utf-8"?>
<!-- Generator: Adobe Illustrator 17.1.0, SVG Export Plug-In . SVG Version: 6.00 Build 0)  -->
<!DOCTYPE svg PUBLIC "-//W3C//DTD SVG 1.1//EN" "http://www.w3.org/Graphics/SVG/1.1/DTD/svg11.dtd" [
	<!ENTITY ns_flows "http://ns.adobe.com/Flows/1.0/">
	<!ENTITY ns_extend "http://ns.adobe.com/Extensibility/1.0/">
	<!ENTITY ns_ai "http://ns.adobe.com/AdobeIllustrator/10.0/">
	<!ENTITY ns_graphs "http://ns.adobe.com/Graphs/1.0/">
	<!ENTITY ns_vars "http://ns.adobe.com/Variables/1.0/">
	<!ENTITY ns_imrep "http://ns.adobe.com/ImageReplacement/1.0/">
	<!ENTITY ns_sfw "http://ns.adobe.com/SaveForWeb/1.0/">
	<!ENTITY ns_custom "http://ns.adobe.com/GenericCustomNamespace/1.0/">
	<!ENTITY ns_adobe_xpath "http://ns.adobe.com/XPath/1.0/">
]>
<svg version="1.1" id="Calque_1" xmlns:x="&ns_extend;" xmlns:i="&ns_ai;" xmlns:graph="&ns_graphs;"
	 xmlns="http://www.w3.org/2000/svg" xmlns:xlink="http://www.w3.org/1999/xlink" xmlns:a="http://ns.adobe.com/AdobeSVGViewerExtensions/3.0/"
	 x="0px" y="0px" viewBox="8.1 316.6 1007.4 134.3" enable-background="new 8.1 316.6 1007.4 134.3" xml:space="preserve">
<metadata>
	<sfw  xmlns="&ns_sfw;">
		<slices></slices>
		<sliceSourceBounds  bottomLeftOrigin="true" width="1007.4" height="134.3" x="8.1" y="317.1"></sliceSourceBounds>
	</sfw>
</metadata>
<g id="Layer_1">
	<g>
		<path fill="#2D383F" d="M951.3,399.9c-4.3,1.7-8.9,2.6-15.3,2.6c-8.9,0-17-4.3-17.4-14.5H956c0.4-1.3,0.4-3.4,0.4-6
			c0-12.3-6-27.2-24.2-27.2c-17.9,0-27.2,14.5-27.2,30.2c0,17,10.6,28.1,28.9,28.1c6.8,0,12.8-1.3,17.4-2.6L951.3,399.9L951.3,399.9
			z M931.8,364.2c9.4,0,11.9,8.5,11.5,13.6h-24.7C919.4,372.3,923.3,364.2,931.8,364.2"/>
		<path fill="#E20031" d="M142.4,383.8c0,37-30.2,67.2-67.2,67.2S8.1,421.2,8.1,383.8c0-37,30.2-67.2,67.2-67.2
			C112.2,317.1,142.4,346.8,142.4,383.8"/>
		<path fill="#FFFFFF" d="M121.1,374.4l-44.2-34l0,0c0,0,0,0-0.4,0c0,0,0,0-0.4,0c0,0,0,0-0.4,0c0,0,0,0-0.4,0c0,0,0,0-0.4,0
			c0,0,0,0-0.4,0c0,0,0,0-0.4,0c0,0,0,0-0.4,0c0,0,0,0-0.4,0c0,0,0,0-0.4,0c0,0,0,0-0.4,0h-0.4l0,0l-44.2,34
			c-1.3,1.3-1.7,3.4-0.9,4.7c0.4,0.9,1.7,1.3,2.6,1.3c0.4,0,1.3-0.4,1.7-0.9l42.1-32.3l42.1,32.3c0.4,0.4,1.3,0.9,1.7,0.9
			c0.9,0,2.1-0.4,2.6-1.3C123.3,377.8,122.8,375.7,121.1,374.4"/>
		<path fill="#FFFFFF" d="M41.2,380.4v32.7c0,4.7,3.4,8.1,7.7,8.1h15.7V388h21.7v33.2h14.9c4.3,0,7.7-3.8,7.7-8.1v-32.7l-34-26.4
			L41.2,380.4z"/>
		<path fill="#2D383F" d="M334.5,383.4c0,20.4-14.5,29.8-28.9,29.8c-15.7,0-28.1-11.1-28.1-28.9c0-18.3,11.9-29.8,28.9-29.8
			C323.1,354.9,334.5,366.4,334.5,383.4 M292,384.2c0,10.6,5.1,19.1,14,19.1c8.1,0,13.6-8.1,13.6-19.1c0-8.9-3.8-18.7-13.6-18.7
			C296.3,365.1,292,374.9,292,384.2"/>
		<path fill="#2D383F" d="M461.6,374c0-7.7,0-13.2-0.4-17.9h12.3l0.4,10.6h0.4c2.6-8.1,9.4-11.9,15.3-11.9c1.3,0,2.1,0,3.4,0.4v11.5
			c0,0-2.6,0-4.3,0c-6.8,0.4-11.5,5.5-12.8,11.9c-0.4,1.3-0.4,2.6-0.4,4.3v28.9h-14V374L461.6,374z"/>
		<path fill="#E20031" d="M849.7,374c0-7.7,0-13.2-0.4-17.9h12.3l0.4,10.6h0.4c2.6-8.1,9.4-11.9,15.3-11.9c1.3,0,2.1,0,3.4,0.4v11.5
			c0,0-2.6,0-4.3,0c-6.8,0.4-11.5,5.5-12.8,11.9c-0.4,1.3-0.4,2.6-0.4,4.3v28.9h-14V374L849.7,374z"/>
		<path fill="#2D383F" d="M244.4,374c0-7.7,0-13.2-0.4-17.9h12.3l0.4,10.6h0.4c2.6-8.1,9.4-11.9,15.3-11.9c1.3,0,2.1,0,3.4,0.4v11.5
			c0,0-2.6,0-4.3,0c-6.8,0.4-11.5,5.5-12.8,11.9c-0.4,1.3-0.4,2.6-0.4,4.3v28.9h-14L244.4,374L244.4,374z"/>
		<path fill="#2D383F" d="M552.6,356.2l10.2,30.2c1.3,3.4,2.1,7.7,3,11.1h0.4c0.9-3.4,2.1-7.2,3-11.1l8.9-29.8h15.3l-14,38.3
			c-7.7,20.8-12.8,30.2-19.6,36.1c-5.5,5.1-11.1,6.8-14.9,7.2l-3.4-11.9c2.6-0.4,5.5-1.7,8.1-3.8c2.6-1.7,6-5.1,7.7-8.9
			c0.4-0.9,0.9-1.7,0.9-2.6c0-0.4,0-1.3-0.9-2.6l-20-52.3H552.6L552.6,356.2z"/>
		<path fill="#E20031" d="M669.1,372.7c0-6.4,0-11.9-0.4-16.6H681l0.9,8.5h0.4c2.6-4.3,8.5-9.8,17.9-9.8c9.8,0,20,6.4,20,23.8v33.2
			h-14.5v-31.5c0-8.1-3-14-10.6-14c-5.5,0-9.4,3.8-11.1,8.1c-0.4,1.3-0.4,3-0.4,4.7v32.7h-14.5V372.7L669.1,372.7z"/>
		<path fill="#2D383F" d="M373.6,354.9c-8.5,0-14.9,3.4-19.1,9.8h-0.4l-0.9-8.5h-12.3c0.4,5.1,0.4,11.1,0.4,18.7v59.9h14v-28.9h0.4
			c3,4.7,8.9,7.7,15.7,7.7c12.8,0,25.5-9.8,25.5-30.2C397,365.9,386.4,354.9,373.6,354.9 M369.8,402.5L369.8,402.5L369.8,402.5
			c-0.4,0-0.4,0-0.9,0c0,0,0,0-0.4,0c-8.5-0.4-13.2-7.7-13.2-18.3c0-9.8,4.7-17.9,14-17.9c8.9,0,14,8.1,14,17.9
			C383.4,394.8,378.7,402.1,369.8,402.5"/>
		<path fill="#E20031" d="M783,393.6v-60.4h-14v28.9h-0.4c-3-4.7-8.9-7.7-15.7-7.7c-12.8,0-25.5,9.8-25.5,29.8
			c0,17.4,10.6,28.5,23.4,28.5c8.5,0,14.9-3.4,19.1-9.8h0.4l0.9,8.5h12.3C783,406.7,783,400.8,783,393.6 M754.9,402.1
			c-8.9,0-14-8.1-14-17.9c0-10.6,5.1-17.9,13.6-18.3l0,0h0.4h0.4c0,0,0,0,0.4,0c8.5,0.4,13.2,7.7,13.2,18.3
			C768.5,394,763.9,402.1,754.9,402.1"/>
		<path fill="#2D383F" d="M213,354.9c-8.5,0-14.9,3.4-19.1,9.8h-0.4l-0.9-8.5h-12.3c0.4,5.1,0.4,11.1,0.4,18.7v59.9h14v-28.9h0.4
			c3,4.7,8.9,7.7,15.7,7.7c12.8,0,25.5-9.8,25.5-30.2C236.3,365.9,225.7,354.9,213,354.9 M209.1,402.5L209.1,402.5L209.1,402.5
			c-0.4,0-0.4,0-0.9,0c0,0,0,0-0.4,0c-8.5-0.4-13.2-7.7-13.2-18.3c0-9.8,4.7-17.9,14-17.9c8.9,0,14,8.1,14,17.9
			C222.7,394.8,217.6,402.1,209.1,402.5"/>
		<path fill="#2D383F" d="M897.8,404.6c0,4.3-3,7.7-8.1,7.7c-4.7,0-7.7-3.4-7.7-7.7s3.4-7.7,8.1-7.7S897.8,400.4,897.8,404.6"/>
		<path fill="#2D383F" d="M448.5,399.9c-4.3,1.7-8.9,2.6-15.3,2.6c-8.9,0-17-4.3-17.4-14.5h37.4c0.4-1.3,0.4-3.4,0.4-6
			c0-12.3-6-27.2-24.2-27.2c-17.9,0-27.2,14.5-27.2,30.2c0,17,10.6,28.1,28.9,28.1c6.8,0,12.8-1.3,17.4-2.6L448.5,399.9L448.5,399.9
			z M428.9,364.7c9.4,0,11.9,8.5,11.5,13.6h-24.7C416.6,372.3,420,364.7,428.9,364.7"/>
		<path fill="#E20031" d="M619.8,353.2c0-6.8,2.6-12.8,9.4-12.8c2.1,0,3.8,0.4,5.1,0.9v-11.1c-2.1-0.4-4.3-0.9-7.2-0.9
			c-4.7,0-10.6,1.7-14.5,5.5c-4.7,4.7-6.8,11.9-6.8,19.1v2.1h-5.1l-3.8,10.6h9.4v45.5h14v-45.5h12.3v-10.6h-12.3L619.8,353.2
			L619.8,353.2z"/>
		<path fill="#E20031" d="M836.5,399.9c-4.3,1.7-8.9,2.6-15.3,2.6c-8.9,0-17-4.3-17.4-14.5h37.4c0.4-1.3,0.4-3.4,0.4-6
			c0-12.3-6-27.2-24.2-27.2c-17.9,0-27.2,14.5-27.2,30.2c0,17,10.6,28.1,28.9,28.1c6.8,0,12.8-1.3,17.4-2.6L836.5,399.9L836.5,399.9
			z M817,364.7c9.4,0,11.9,8.5,11.5,13.6h-24.7C804.2,372.3,808.1,364.7,817,364.7"/>
		<path fill="#E20031" d="M656.7,340.4c0,4.3-3,7.7-8.1,7.7c-4.7,0-7.7-3.4-7.7-7.7s3.4-7.7,8.1-7.7
			C653.3,332.8,656.3,336.2,656.7,340.4 M641.4,356.2h14v56.1h-14V356.2z"/>
		<path fill="#2D383F" d="M519.9,340v16.2h10.2l4.7,10.6h-14.5v24.7c0,6.8,1.7,10.2,7.2,10.2c2.6,0,4.3-0.4,5.5-0.9l0.4,10.6
			c-2.1,0.9-6,1.3-10.2,1.3c-5.1,0-9.4-1.7-12.3-4.7c-3-3.4-4.3-8.1-4.3-15.7v-26.4h-6.8v-9.8h6.8v-12.8L519.9,340z"/>
		<path fill="#2D383F" d="M1003.6,355.7l-0.4,7.7h-0.4c-2.6-4.7-7.7-8.9-16.2-8.9c-13.6,0-25.5,11.1-25.5,29.3
			c0,15.7,9.8,27.2,23.8,27.2c7.2,0,13.2-3.4,16.2-8.1h0.4v4.7c0,11.9-6.8,17-16.2,17c-6,0-11.5-1.7-15.3-3.8v11.9
			c4.7,1.7,10.2,2.6,15.3,2.6c7.7,0,15.7-1.7,21.7-6.8c6-5.1,8.1-13.6,8.1-25.5V371c0-7.7,0.4-12.3,0.4-16.2L1003.6,355.7
			L1003.6,355.7z M1001.5,387.6c0,1.7-0.4,3.4-0.4,5.1c-1.7,5.1-6.4,8.5-11.5,8.5c-8.9,0-13.6-7.7-13.6-17.4
			c0-11.5,6-18.3,13.6-18.3c6,0,10.2,3.8,11.5,8.9c0.4,1.3,0.4,2.6,0.4,3.8V387.6L1001.5,387.6z"/>
	</g>
</g>
<g id="Calque_2">
</g>
</svg>
